<mxfile host="app.diagrams.net" modified="2024-03-06T16:48:58.181Z" agent="Mozilla/5.0 (Macintosh; Intel Mac OS X 10_15_7) AppleWebKit/537.36 (KHTML, like Gecko) Chrome/122.0.0.0 Safari/537.36" etag="TAr02CIV-hZ0PKuoszlE" version="24.0.2" type="github">
  <diagram name="第 1 页" id="i9QOz4UdIeqOqb2Lnfas">
    <mxGraphModel dx="954" dy="482" grid="1" gridSize="10" guides="1" tooltips="1" connect="1" arrows="1" fold="1" page="1" pageScale="1" pageWidth="827" pageHeight="1169" math="0" shadow="0">
      <root>
        <mxCell id="0" />
        <mxCell id="1" parent="0" />
        <mxCell id="uJgTNGqBuZuOW4oRZq-L-1" value="User" style="swimlane;fontStyle=1;align=center;verticalAlign=top;childLayout=stackLayout;horizontal=1;startSize=26;horizontalStack=0;resizeParent=1;resizeParentMax=0;resizeLast=0;collapsible=1;marginBottom=0;whiteSpace=wrap;html=1;" vertex="1" parent="1">
          <mxGeometry x="240" y="110" width="390" height="190" as="geometry" />
        </mxCell>
        <mxCell id="uJgTNGqBuZuOW4oRZq-L-2" value="- UserID - String&lt;div&gt;- Username&amp;nbsp;&lt;span style=&quot;background-color: initial;&quot;&gt;- String&lt;/span&gt;&lt;/div&gt;&lt;div&gt;- Email&amp;nbsp;&lt;span style=&quot;background-color: initial;&quot;&gt;- String&lt;/span&gt;&lt;/div&gt;&lt;div&gt;- Password&amp;nbsp;&lt;span style=&quot;background-color: initial;&quot;&gt;- String&lt;/span&gt;&lt;/div&gt;&lt;div&gt;- Location&amp;nbsp;&lt;span style=&quot;background-color: initial;&quot;&gt;- String&lt;/span&gt;&lt;/div&gt;" style="text;strokeColor=none;fillColor=none;align=left;verticalAlign=top;spacingLeft=4;spacingRight=4;overflow=hidden;rotatable=0;points=[[0,0.5],[1,0.5]];portConstraint=eastwest;whiteSpace=wrap;html=1;" vertex="1" parent="uJgTNGqBuZuOW4oRZq-L-1">
          <mxGeometry y="26" width="390" height="84" as="geometry" />
        </mxCell>
        <mxCell id="uJgTNGqBuZuOW4oRZq-L-3" value="" style="line;strokeWidth=1;fillColor=none;align=left;verticalAlign=middle;spacingTop=-1;spacingLeft=3;spacingRight=3;rotatable=0;labelPosition=right;points=[];portConstraint=eastwest;strokeColor=inherit;" vertex="1" parent="uJgTNGqBuZuOW4oRZq-L-1">
          <mxGeometry y="110" width="390" height="8" as="geometry" />
        </mxCell>
        <mxCell id="uJgTNGqBuZuOW4oRZq-L-4" value="+ Login(email: String, password: String): Boolean&amp;nbsp;&lt;div&gt;+ Logout(): void&amp;nbsp;&lt;div&gt;+ Register(username: String, email: String, password: String): Boolean&amp;nbsp;&lt;/div&gt;&lt;div&gt;+UpdateProfile(email: String, location: String): void&lt;/div&gt;&lt;/div&gt;" style="text;strokeColor=none;fillColor=none;align=left;verticalAlign=top;spacingLeft=4;spacingRight=4;overflow=hidden;rotatable=0;points=[[0,0.5],[1,0.5]];portConstraint=eastwest;whiteSpace=wrap;html=1;" vertex="1" parent="uJgTNGqBuZuOW4oRZq-L-1">
          <mxGeometry y="118" width="390" height="72" as="geometry" />
        </mxCell>
      </root>
    </mxGraphModel>
  </diagram>
</mxfile>
